<svg width="31" height="32" viewBox="0 0 31 32" fill="none" xmlns="http://www.w3.org/2000/svg">
<path fill-rule="evenodd" clip-rule="evenodd" d="M13.4848 30.2517C13.4848 30.8093 13.9282 31.2614 14.4751 31.2614L15.847 31.2614C16.3939 31.2614 16.8372 30.8093 16.8372 30.2517L16.8372 17.7092L29.1378 17.7092C29.6847 17.7092 30.128 17.2571 30.128 16.6995V15.3005C30.128 14.7429 29.6847 14.2908 29.1378 14.2908L16.8372 14.2908L16.8372 1.74831C16.8372 1.19067 16.3939 0.738616 15.847 0.738616L14.4751 0.738616C13.9282 0.738616 13.4848 1.19067 13.4848 1.74831L13.4848 14.2908H1.1843C0.637425 14.2908 0.194092 14.7429 0.194092 15.3005V16.6995C0.194092 17.2571 0.637425 17.7092 1.1843 17.7092H13.4848L13.4848 30.2517Z" fill="#C3D1FF"/>
</svg>
