<svg width="17" height="16" viewBox="0 0 17 16" fill="none" xmlns="http://www.w3.org/2000/svg">
<path fill-rule="evenodd" clip-rule="evenodd" d="M7.186 15.0181C7.186 15.5069 7.58803 15.9032 8.08397 15.9032C8.5799 15.9032 8.98194 15.5069 8.98194 15.0181L8.98194 8.88505L15.2041 8.88505C15.7 8.88505 16.102 8.48877 16.102 7.99994C16.102 7.5111 15.7 7.11483 15.2041 7.11483L8.98194 7.11483L8.98194 0.981809C8.98194 0.492975 8.5799 0.0966968 8.08397 0.0966968C7.58803 0.0966968 7.186 0.492975 7.186 0.98181V7.11483L0.96388 7.11483C0.467944 7.11483 0.0659093 7.5111 0.0659093 7.99994C0.0659093 8.48877 0.467944 8.88505 0.96388 8.88505L7.186 8.88505L7.186 15.0181Z" fill="#4D83C9"/>
</svg>
