<svg width="12" height="14" viewBox="0 0 12 14" fill="none" xmlns="http://www.w3.org/2000/svg">
<path d="M6.0573 0.684204C3.84448 0.684204 2.03816 2.49052 2.03816 4.70334C2.03816 6.08708 2.74438 7.31693 3.81462 8.04095C1.76658 8.91942 0.315674 10.9502 0.315674 13.3158H1.464C1.464 10.7722 3.51376 8.72248 6.0573 8.72248C8.60084 8.72248 10.6506 10.7722 10.6506 13.3158H11.7989C11.7989 10.9502 10.348 8.91885 8.29998 8.04038C8.84635 7.67178 9.294 7.17483 9.60371 6.59305C9.91341 6.01127 10.0757 5.36242 10.0764 4.70334C10.0764 2.49052 8.27012 0.684204 6.0573 0.684204ZM6.0573 1.83253C7.64945 1.83253 8.92811 3.11119 8.92811 4.70334C8.92811 6.2955 7.64945 7.57416 6.0573 7.57416C4.46515 7.57416 3.18649 6.2955 3.18649 4.70334C3.18649 3.11119 4.46515 1.83253 6.0573 1.83253Z" fill="#4D83C9"/>
</svg>
