<svg width="20" height="20" viewBox="0 0 20 20" fill="none" xmlns="http://www.w3.org/2000/svg">
<path d="M3.12545 0L2.86909 0.447619C2.86909 0.447619 0 5.38286 0 13.3333V14.2857H5.54C5.4806 14.5993 5.45196 14.9184 5.45455 15.2381C5.45455 17.8571 7.5 20 10 20C12.5 20 14.5455 17.8571 14.5455 15.2381C14.5455 14.9105 14.5209 14.5952 14.46 14.2857H20V13.3333C20 8.94286 19.2945 5.72381 18.5791 3.6C17.8645 1.4781 17.1018 0.386667 17.1018 0.386667L16.8182 0H3.12455H3.12545ZM4.23273 1.90476H15.7964C15.9282 2.10286 16.3173 2.60191 16.8745 4.25714C17.4655 6.00952 17.9945 8.7619 18.0964 12.381H13.6364C12.8045 11.2286 11.4764 10.4762 10 10.4762C8.52364 10.4762 7.19545 11.2286 6.36364 12.381H1.90364C2.11091 6.04762 3.93273 2.44762 4.23273 1.90476ZM9.09091 3.80952V5.71429H7.27273V7.61905H9.09091V9.52381H10.9091V7.61905H12.7273V5.71429H10.9091V3.80952H9.09091ZM10 12.381C11.5182 12.381 12.7273 13.6476 12.7273 15.2381C12.7273 16.8286 11.5182 18.0952 10 18.0952C8.48182 18.0952 7.27273 16.8286 7.27273 15.2381C7.27273 13.6476 8.48182 12.381 10 12.381ZM10 14.2857C9.75889 14.2857 9.52766 14.3861 9.35718 14.5647C9.18669 14.7433 9.09091 14.9855 9.09091 15.2381C9.09091 15.4907 9.18669 15.7329 9.35718 15.9115C9.52766 16.0901 9.75889 16.1905 10 16.1905C10.2411 16.1905 10.4723 16.0901 10.6428 15.9115C10.8133 15.7329 10.9091 15.4907 10.9091 15.2381C10.9091 14.9855 10.8133 14.7433 10.6428 14.5647C10.4723 14.3861 10.2411 14.2857 10 14.2857Z" fill="#284C8A"/>
</svg>
