<svg width="15" height="18" viewBox="0 0 15 18" fill="none" xmlns="http://www.w3.org/2000/svg">
<path d="M9.79679 6.52173C9.56395 6.52173 9.37524 6.71044 9.37524 6.94327V14.9105C9.37524 15.1432 9.56395 15.332 9.79679 15.332C10.0296 15.332 10.2183 15.1432 10.2183 14.9105V6.94327C10.2183 6.71044 10.0296 6.52173 9.79679 6.52173Z" fill="white"/>
<path d="M4.8223 6.52173C4.58946 6.52173 4.40076 6.71044 4.40076 6.94327V14.9105C4.40076 15.1432 4.58946 15.332 4.8223 15.332C5.05514 15.332 5.24385 15.1432 5.24385 14.9105V6.94327C5.24385 6.71044 5.05514 6.52173 4.8223 6.52173Z" fill="white"/>
<path d="M1.19725 5.35877V15.7447C1.19725 16.3586 1.42235 16.9351 1.81557 17.3487C2.20699 17.7635 2.7517 17.999 3.32177 18H11.2975C11.8678 17.999 12.4125 17.7635 12.8037 17.3487C13.1969 16.9351 13.422 16.3586 13.422 15.7447V5.35877C14.2037 5.15129 14.7102 4.39614 14.6057 3.59405C14.5009 2.79213 13.8177 2.19225 13.0089 2.19209H10.8506V1.66516C10.8531 1.22204 10.6779 0.796544 10.3642 0.483514C10.0505 0.170649 9.62436 -0.00356726 9.18124 5.53875e-05H5.43806C4.99494 -0.00356726 4.56879 0.170649 4.2551 0.483514C3.94141 0.796544 3.76621 1.22204 3.76868 1.66516V2.19209H1.6104C0.801563 2.19225 0.118365 2.79213 0.0136372 3.59405C-0.0909256 4.39614 0.415586 5.15129 1.19725 5.35877ZM11.2975 17.1569H3.32177C2.60103 17.1569 2.04034 16.5378 2.04034 15.7447V5.39582H12.579V15.7447C12.579 16.5378 12.0183 17.1569 11.2975 17.1569ZM4.61176 1.66516C4.60896 1.44566 4.69525 1.23439 4.85102 1.07944C5.00663 0.924489 5.21839 0.839357 5.43806 0.843144H9.18124C9.4009 0.839357 9.61266 0.924489 9.76827 1.07944C9.92405 1.23423 10.0103 1.44566 10.0075 1.66516V2.19209H4.61176V1.66516ZM1.6104 3.03517H13.0089C13.428 3.03517 13.7677 3.37488 13.7677 3.79395C13.7677 4.21303 13.428 4.55273 13.0089 4.55273H1.6104C1.19133 4.55273 0.851621 4.21303 0.851621 3.79395C0.851621 3.37488 1.19133 3.03517 1.6104 3.03517Z" fill="white"/>
<path d="M7.30961 6.52173C7.07677 6.52173 6.88806 6.71044 6.88806 6.94327V14.9105C6.88806 15.1432 7.07677 15.332 7.30961 15.332C7.54245 15.332 7.73115 15.1432 7.73115 14.9105V6.94327C7.73115 6.71044 7.54245 6.52173 7.30961 6.52173Z" fill="white"/>
</svg>
