<svg width="41" height="30" viewBox="0 0 41 30" fill="none" xmlns="http://www.w3.org/2000/svg">
<rect width="41" height="30" rx="10" fill="#FF6D6D"/>
<path d="M11.0017 22V13.58H12.9617V14.36C13.5084 13.6933 14.2017 13.36 15.0417 13.36C16.0151 13.36 16.7417 13.7733 17.2217 14.6C17.7951 13.7733 18.6284 13.36 19.7217 13.36C20.8151 13.36 21.6151 13.8 22.1217 14.68C22.4151 15.2 22.5617 15.9067 22.5617 16.8V22H20.6017V17.36C20.6017 16.6267 20.5417 16.1267 20.4217 15.86C20.2351 15.3667 19.8617 15.12 19.3017 15.12C18.8217 15.12 18.4351 15.3267 18.1417 15.74C17.8884 16.1 17.7617 16.74 17.7617 17.66V22H15.8017V17.36C15.8017 16.6267 15.7417 16.1267 15.6217 15.86C15.4351 15.3667 15.0617 15.12 14.5017 15.12C14.0217 15.12 13.6351 15.3267 13.3417 15.74C13.0884 16.1 12.9617 16.74 12.9617 17.66V22H11.0017ZM25.0447 7.42H27.0047V22H25.0447V7.42Z" fill="black"/>
</svg>
