<svg width="13" height="13" viewBox="0 0 13 13" fill="none" xmlns="http://www.w3.org/2000/svg">
<path fill-rule="evenodd" clip-rule="evenodd" d="M11.294 12.6576C11.6705 13.034 12.2808 13.034 12.6573 12.6576C13.0337 12.2812 13.0337 11.6708 12.6573 11.2944L7.93433 6.57146L12.6573 1.84854C13.0337 1.4721 13.0337 0.861763 12.6573 0.48532C12.2808 0.108878 11.6705 0.108878 11.294 0.48532L6.57112 5.20824L1.84819 0.485321C1.47175 0.108878 0.861417 0.108878 0.484975 0.48532C0.108532 0.861763 0.108532 1.4721 0.484975 1.84854L5.2079 6.57146L0.484975 11.2944C0.108533 11.6708 0.108532 12.2812 0.484975 12.6576C0.861417 13.034 1.47175 13.034 1.84819 12.6576L6.57112 7.93468L11.294 12.6576Z" fill="#305388"/>
</svg>
