<svg width="29" height="37" viewBox="0 0 29 37" fill="none" xmlns="http://www.w3.org/2000/svg">
<g filter="url(#filter0_d)">
<path d="M10 5H25V20.75L21.5 22.25L17.5 23L13.5 22.25L10 20.75V5Z" fill="#416BFF"/>
<path d="M10.5 5.5H24.5V20.4203L21.3537 21.7687L17.5 22.4913L13.6463 21.7687L10.5 20.4203V5.5Z" stroke="black"/>
</g>
<rect x="15.5" y="22.5" width="4" height="3" fill="#416BFF" stroke="black"/>
<path d="M24 12C22.767 12 22.233 12 21 12" stroke="black" stroke-linecap="round" stroke-linejoin="round"/>
<path d="M21 14C22 14 23 14 24 14" stroke="black" stroke-linecap="round" stroke-linejoin="round"/>
<path d="M21 16C22 16 23 16 24 16" stroke="black" stroke-linecap="round" stroke-linejoin="round"/>
<path d="M21 18C22 18 23 18 24 18" stroke="black" stroke-linecap="round" stroke-linejoin="round"/>
<path d="M21 10C22 10 23 10 24 10" stroke="black" stroke-linecap="round" stroke-linejoin="round"/>
<path d="M17 26H18V28H17V26Z" fill="black"/>
<circle cx="18" cy="4" r="1.5" fill="white" stroke="black"/>
<g filter="url(#filter1_d)">
<path d="M18 1H5V29" stroke="black"/>
</g>
<rect x="17" width="2" height="3" rx="1" fill="black"/>
<path d="M6 1V29" stroke="black"/>
<rect x="17" y="28" width="4" height="1" fill="black"/>
<defs>
<filter id="filter0_d" x="6" y="5" width="23" height="26" filterUnits="userSpaceOnUse" color-interpolation-filters="sRGB">
<feFlood flood-opacity="0" result="BackgroundImageFix"/>
<feColorMatrix in="SourceAlpha" type="matrix" values="0 0 0 0 0 0 0 0 0 0 0 0 0 0 0 0 0 0 127 0"/>
<feOffset dy="4"/>
<feGaussianBlur stdDeviation="2"/>
<feColorMatrix type="matrix" values="0 0 0 0 0 0 0 0 0 0 0 0 0 0 0 0 0 0 0.25 0"/>
<feBlend mode="normal" in2="BackgroundImageFix" result="effect1_dropShadow"/>
<feBlend mode="normal" in="SourceGraphic" in2="effect1_dropShadow" result="shape"/>
</filter>
<filter id="filter1_d" x="0.5" y="0.5" width="21.5" height="36.5" filterUnits="userSpaceOnUse" color-interpolation-filters="sRGB">
<feFlood flood-opacity="0" result="BackgroundImageFix"/>
<feColorMatrix in="SourceAlpha" type="matrix" values="0 0 0 0 0 0 0 0 0 0 0 0 0 0 0 0 0 0 127 0"/>
<feOffset dy="4"/>
<feGaussianBlur stdDeviation="2"/>
<feColorMatrix type="matrix" values="0 0 0 0 0 0 0 0 0 0 0 0 0 0 0 0 0 0 0.25 0"/>
<feBlend mode="normal" in2="BackgroundImageFix" result="effect1_dropShadow"/>
<feBlend mode="normal" in="SourceGraphic" in2="effect1_dropShadow" result="shape"/>
</filter>
</defs>
</svg>
