<svg width="41" height="30" viewBox="0 0 41 30" fill="none" xmlns="http://www.w3.org/2000/svg">
<rect width="41" height="30" rx="10" fill="#FF6D6D"/>
<path d="M17.4561 8.66V10.58H12.1361V13.96H17.2961V15.88H12.1361V20.08H17.4561V22H10.0961V8.66H17.4561ZM21.3761 8.66H29.6961V20.08H31.2161V25H29.2961V22H20.6961V25H18.7761V20.08C19.2294 20.0933 19.6428 19.9333 20.0161 19.6C20.3894 19.2533 20.6828 18.8133 20.8961 18.28C21.2161 17.4667 21.3761 16.3 21.3761 14.78V8.66ZM23.4161 10.58V14.78C23.4161 16.4467 23.2628 17.6867 22.9561 18.5C22.7161 19.1133 22.3694 19.64 21.9161 20.08H27.6561V10.58H23.4161Z" fill="black"/>
</svg>
