<svg width="34" height="30" viewBox="0 0 34 30" fill="none" xmlns="http://www.w3.org/2000/svg">
<g filter="url(#filter0_d)">
<path d="M27.9071 14.4351C27.9071 17.0837 24.9444 19.2308 21.2896 19.2308C17.6349 19.2308 14.5251 17.0837 14.5251 14.4351C14.5251 11.7865 14.2526 10.3887 17.9073 10.3887C18.0756 10.3887 25.2933 10.0926 25.4435 10.0997C28.5565 10.2473 27.9071 11.9085 27.9071 14.4351Z" fill="#416BFF"/>
<path d="M16.8244 17.4171C15.6795 16.6121 15.0251 15.5495 15.0251 14.4351C15.0251 14.435 15.0251 14.4349 15.0251 14.4348L15.0251 13.0349C15.0279 12.9253 15.0322 12.8195 15.0386 12.7168C15.0668 12.267 15.1338 11.9476 15.2556 11.7114L25.4582 10.6011C26.1788 10.6387 26.62 10.7614 26.8932 10.9179C27.1477 11.0638 27.2836 11.254 27.3641 11.5201C27.4526 11.8124 27.4722 12.1918 27.4601 12.7006C27.456 12.8734 27.4478 13.0663 27.4392 13.2722C27.424 13.6327 27.4071 14.033 27.4071 14.4351C27.4071 15.5592 26.7793 16.6213 25.6755 17.4213C24.5722 18.2208 23.0232 18.7308 21.2896 18.7308C19.5554 18.7308 17.9668 18.2203 16.8244 17.4171Z" stroke="black" stroke-opacity="0.48"/>
<path d="M16.8244 17.4171C15.6795 16.6121 15.0251 15.5495 15.0251 14.4351C15.0251 14.435 15.0251 14.4349 15.0251 14.4348L15.0251 13.0349C15.0279 12.9253 15.0322 12.8195 15.0386 12.7168C15.0668 12.267 15.1338 11.9476 15.2556 11.7114L25.4582 10.6011C26.1788 10.6387 26.62 10.7614 26.8932 10.9179C27.1477 11.0638 27.2836 11.254 27.3641 11.5201C27.4526 11.8124 27.4722 12.1918 27.4601 12.7006C27.456 12.8734 27.4478 13.0663 27.4392 13.2722C27.424 13.6327 27.4071 14.033 27.4071 14.4351C27.4071 15.5592 26.7793 16.6213 25.6755 17.4213C24.5722 18.2208 23.0232 18.7308 21.2896 18.7308C19.5554 18.7308 17.9668 18.2203 16.8244 17.4171Z" stroke="black" stroke-opacity="0.48"/>
<path d="M16.8244 17.4171C15.6795 16.6121 15.0251 15.5495 15.0251 14.4351C15.0251 14.435 15.0251 14.4349 15.0251 14.4348L15.0251 13.0349C15.0279 12.9253 15.0322 12.8195 15.0386 12.7168C15.0668 12.267 15.1338 11.9476 15.2556 11.7114L25.4582 10.6011C26.1788 10.6387 26.62 10.7614 26.8932 10.9179C27.1477 11.0638 27.2836 11.254 27.3641 11.5201C27.4526 11.8124 27.4722 12.1918 27.4601 12.7006C27.456 12.8734 27.4478 13.0663 27.4392 13.2722C27.424 13.6327 27.4071 14.033 27.4071 14.4351C27.4071 15.5592 26.7793 16.6213 25.6755 17.4213C24.5722 18.2208 23.0232 18.7308 21.2896 18.7308C19.5554 18.7308 17.9668 18.2203 16.8244 17.4171Z" stroke="black" stroke-opacity="0.48"/>
<path d="M27.9071 12.3372C27.9071 14.9857 24.9443 17.1328 21.2896 17.1328C17.6349 17.1328 14.6721 14.9857 14.6721 12.3372C14.6721 9.6886 17.6349 7.5415 21.2896 7.5415C24.9443 7.5415 27.9071 9.6886 27.9071 12.3372Z" fill="#416BFF"/>
<path d="M27.4071 12.3372C27.4071 13.4613 26.7793 14.5234 25.6755 15.3234C24.5722 16.1229 23.0232 16.6328 21.2896 16.6328C19.556 16.6328 18.007 16.1229 16.9037 15.3234C15.7999 14.5234 15.1721 13.4613 15.1721 12.3372C15.1721 11.213 15.7999 10.1509 16.9037 9.35099C18.007 8.55145 19.556 8.0415 21.2896 8.0415C23.0232 8.0415 24.5722 8.55145 25.6755 9.35099C26.7793 10.1509 27.4071 11.213 27.4071 12.3372Z" stroke="black" stroke-opacity="0.48"/>
<path d="M27.4071 12.3372C27.4071 13.4613 26.7793 14.5234 25.6755 15.3234C24.5722 16.1229 23.0232 16.6328 21.2896 16.6328C19.556 16.6328 18.007 16.1229 16.9037 15.3234C15.7999 14.5234 15.1721 13.4613 15.1721 12.3372C15.1721 11.213 15.7999 10.1509 16.9037 9.35099C18.007 8.55145 19.556 8.0415 21.2896 8.0415C23.0232 8.0415 24.5722 8.55145 25.6755 9.35099C26.7793 10.1509 27.4071 11.213 27.4071 12.3372Z" stroke="black" stroke-opacity="0.48"/>
<path d="M27.4071 12.3372C27.4071 13.4613 26.7793 14.5234 25.6755 15.3234C24.5722 16.1229 23.0232 16.6328 21.2896 16.6328C19.556 16.6328 18.007 16.1229 16.9037 15.3234C15.7999 14.5234 15.1721 13.4613 15.1721 12.3372C15.1721 11.213 15.7999 10.1509 16.9037 9.35099C18.007 8.55145 19.556 8.0415 21.2896 8.0415C23.0232 8.0415 24.5722 8.55145 25.6755 9.35099C26.7793 10.1509 27.4071 11.213 27.4071 12.3372Z" stroke="black" stroke-opacity="0.48"/>
<path d="M17.6132 8.59058L25.26 15.9339" stroke="black"/>
<path d="M19.0355 10.5969C20.3734 12.8827 18.9011 16.2324 15.7469 18.0785C12.5927 19.9247 8.82429 19.6426 7.48637 17.3568C6.14846 15.071 5.20716 14.0023 8.36132 12.1561C8.50654 12.0711 14.5861 8.16957 14.7194 8.09983C17.4806 6.65469 17.7592 8.41634 19.0355 10.5969Z" fill="#416BFF"/>
<path d="M10.9771 18.7689C9.58233 18.6525 8.48083 18.066 7.91789 17.1042C7.91783 17.1041 7.91778 17.104 7.91772 17.1039L7.21057 15.8958C7.15764 15.7998 7.1079 15.7063 7.06156 15.6144C6.85869 15.212 6.75516 14.9025 6.74093 14.6371L14.9853 8.52508C15.6262 8.19358 16.0689 8.07656 16.3838 8.07366C16.6771 8.07096 16.8905 8.16651 17.0944 8.35544C17.3184 8.56305 17.527 8.88057 17.7735 9.3258C17.8573 9.47701 17.9477 9.6476 18.0442 9.82971C18.2132 10.1485 18.4009 10.5025 18.604 10.8495C19.1718 11.8196 19.1666 13.0534 18.618 14.3014C18.0697 15.5487 16.9905 16.7713 15.4943 17.647C13.9976 18.5231 12.3688 18.885 10.9771 18.7689Z" stroke="black" stroke-opacity="0.48"/>
<path d="M10.9771 18.7689C9.58233 18.6525 8.48083 18.066 7.91789 17.1042C7.91783 17.1041 7.91778 17.104 7.91772 17.1039L7.21057 15.8958C7.15764 15.7998 7.1079 15.7063 7.06156 15.6144C6.85869 15.212 6.75516 14.9025 6.74093 14.6371L14.9853 8.52508C15.6262 8.19358 16.0689 8.07656 16.3838 8.07366C16.6771 8.07096 16.8905 8.16651 17.0944 8.35544C17.3184 8.56305 17.527 8.88057 17.7735 9.3258C17.8573 9.47701 17.9477 9.6476 18.0442 9.82971C18.2132 10.1485 18.4009 10.5025 18.604 10.8495C19.1718 11.8196 19.1666 13.0534 18.618 14.3014C18.0697 15.5487 16.9905 16.7713 15.4943 17.647C13.9976 18.5231 12.3688 18.885 10.9771 18.7689Z" stroke="black" stroke-opacity="0.48"/>
<path d="M10.9771 18.7689C9.58233 18.6525 8.48083 18.066 7.91789 17.1042C7.91783 17.1041 7.91778 17.104 7.91772 17.1039L7.21057 15.8958C7.15764 15.7998 7.1079 15.7063 7.06156 15.6144C6.85869 15.212 6.75516 14.9025 6.74093 14.6371L14.9853 8.52508C15.6262 8.19358 16.0689 8.07656 16.3838 8.07366C16.6771 8.07096 16.8905 8.16651 17.0944 8.35544C17.3184 8.56305 17.527 8.88057 17.7735 9.3258C17.8573 9.47701 17.9477 9.6476 18.0442 9.82971C18.2132 10.1485 18.4009 10.5025 18.604 10.8495C19.1718 11.8196 19.1666 13.0534 18.618 14.3014C18.0697 15.5487 16.9905 16.7713 15.4943 17.647C13.9976 18.5231 12.3688 18.885 10.9771 18.7689Z" stroke="black" stroke-opacity="0.48"/>
<path d="M17.9756 8.78625C19.3135 11.0721 17.8412 14.4217 14.687 16.2679C11.5328 18.114 7.89128 17.7576 6.55337 15.4718C5.21545 13.186 6.68781 9.83639 9.84197 7.99022C12.9961 6.14404 16.6377 6.50044 17.9756 8.78625Z" fill="#416BFF"/>
<path d="M17.5441 9.03882C18.1119 10.009 18.1067 11.2427 17.5581 12.4907C17.0098 13.7381 15.9305 14.9606 14.4344 15.8363C12.9383 16.712 11.3438 17.0544 9.98779 16.9217C8.63104 16.7889 7.55273 16.1894 6.98489 15.2193C6.41704 14.2491 6.42231 13.0154 6.97087 11.7674C7.51915 10.52 8.59842 9.29744 10.0945 8.42173C11.5907 7.54603 13.1851 7.20364 14.5412 7.33636C15.8979 7.46914 16.9762 8.06866 17.5441 9.03882Z" stroke="black" stroke-opacity="0.48"/>
<path d="M17.5441 9.03882C18.1119 10.009 18.1067 11.2427 17.5581 12.4907C17.0098 13.7381 15.9305 14.9606 14.4344 15.8363C12.9383 16.712 11.3438 17.0544 9.98779 16.9217C8.63104 16.7889 7.55273 16.1894 6.98489 15.2193C6.41704 14.2491 6.42231 13.0154 6.97087 11.7674C7.51915 10.52 8.59842 9.29744 10.0945 8.42173C11.5907 7.54603 13.1851 7.20364 14.5412 7.33636C15.8979 7.46914 16.9762 8.06866 17.5441 9.03882Z" stroke="black" stroke-opacity="0.48"/>
<path d="M17.5441 9.03882C18.1119 10.009 18.1067 11.2427 17.5581 12.4907C17.0098 13.7381 15.9305 14.9606 14.4344 15.8363C12.9383 16.712 11.3438 17.0544 9.98779 16.9217C8.63104 16.7889 7.55273 16.1894 6.98489 15.2193C6.41704 14.2491 6.42231 13.0154 6.97087 11.7674C7.51915 10.52 8.59842 9.29744 10.0945 8.42173C11.5907 7.54603 13.1851 7.20364 14.5412 7.33636C15.8979 7.46914 16.9762 8.06866 17.5441 9.03882Z" stroke="black" stroke-opacity="0.48"/>
<path d="M7.19897 10.7529L17.508 13.2277" stroke="black"/>
</g>
<defs>
<filter id="filter0_d" x="0.130859" y="4.64746" width="31.8325" height="24.8505" filterUnits="userSpaceOnUse" color-interpolation-filters="sRGB">
<feFlood flood-opacity="0" result="BackgroundImageFix"/>
<feColorMatrix in="SourceAlpha" type="matrix" values="0 0 0 0 0 0 0 0 0 0 0 0 0 0 0 0 0 0 127 0"/>
<feOffset dy="4"/>
<feGaussianBlur stdDeviation="2"/>
<feColorMatrix type="matrix" values="0 0 0 0 0 0 0 0 0 0 0 0 0 0 0 0 0 0 0.25 0"/>
<feBlend mode="normal" in2="BackgroundImageFix" result="effect1_dropShadow"/>
<feBlend mode="normal" in="SourceGraphic" in2="effect1_dropShadow" result="shape"/>
</filter>
</defs>
</svg>
