<svg width="38" height="38" viewBox="0 0 38 38" fill="none" xmlns="http://www.w3.org/2000/svg">
<path d="M24.9636 10.9348H23.1212V10.0282C23.1212 9.73492 22.8303 9.60161 22.5637 9.60161H21.1334C20.794 8.53502 19.9455 8.00173 18.9758 8.00173C18.0168 7.96207 17.1445 8.60887 16.8182 9.60161H15.4122C15.1455 9.60161 14.8788 9.73492 14.8788 10.0282V10.9348H13.0364C11.9445 10.9476 11.0513 11.895 11 13.0946V28.3735C11 29.5467 11.9697 30.4 13.0364 30.4H24.9636C26.0303 30.4 27 29.5467 27 28.3735V13.0947C26.9487 11.895 26.0555 10.9476 24.9636 10.9348ZM15.8485 10.6682H17.1818C17.4146 10.637 17.6015 10.4422 17.6425 10.1882C17.786 9.50056 18.3345 9.00692 18.9758 8.98834C19.6111 9.00952 20.1514 9.50469 20.2849 10.1882C20.3284 10.451 20.5276 10.6482 20.7697 10.6682H22.1516V12.8014H15.8485V10.6682ZM26.0303 28.3735C26.0303 28.9602 25.497 29.3335 24.9636 29.3335H13.0364C12.503 29.3335 11.9697 28.9602 11.9697 28.3735V13.0947C12.0192 12.4841 12.4791 12.0126 13.0364 12.0015H14.8788V13.3614C14.9044 13.6601 15.1397 13.8836 15.4121 13.868H22.5636C22.8411 13.8847 23.0837 13.6643 23.1212 13.3614V12.0014H24.9636C25.5208 12.0126 25.9808 12.484 26.0303 13.0946V28.3735H26.0303Z" fill="#284C8A"/>
<path d="M23.2107 16.3362L14.7896 16.3362C14.3624 16.3362 14.0161 16.6057 14.0161 16.9382C14.0161 17.2708 14.3624 17.5403 14.7896 17.5403H23.2107C23.6379 17.5403 23.9841 17.2708 23.9841 16.9382C23.9841 16.6057 23.6379 16.3362 23.2107 16.3362Z" fill="#284C8A"/>
<path d="M23.3945 20.8L14.9734 20.8C14.5462 20.8 14.2 21.0696 14.2 21.4021C14.2 21.7346 14.5462 22.0042 14.9734 22.0042H23.3945C23.8217 22.0042 24.168 21.7346 24.168 21.4021C24.168 21.0696 23.8217 20.8 23.3945 20.8Z" fill="#284C8A"/>
<path d="M23.3945 25.0667L14.9734 25.0667C14.5462 25.0667 14.2 25.3362 14.2 25.6687C14.2 26.0012 14.5462 26.2708 14.9734 26.2708H23.3945C23.8217 26.2708 24.168 26.0012 24.168 25.6687C24.168 25.3362 23.8217 25.0667 23.3945 25.0667Z" fill="#284C8A"/>
<circle cx="19" cy="19" r="17.5" stroke="#284D8A" stroke-width="3"/>
</svg>
