<svg width="40" height="30" viewBox="0 0 40 30" fill="none" xmlns="http://www.w3.org/2000/svg">
<rect width="40" height="30" rx="10" fill="#FF6D6D"/>
<path d="M8.91578 21V12.58H10.8758V13.36C11.4224 12.6933 12.1158 12.36 12.9558 12.36C13.9291 12.36 14.6558 12.7733 15.1358 13.6C15.7091 12.7733 16.5424 12.36 17.6358 12.36C18.7291 12.36 19.5291 12.8 20.0358 13.68C20.3291 14.2 20.4758 14.9067 20.4758 15.8V21H18.5158V16.36C18.5158 15.6267 18.4558 15.1267 18.3358 14.86C18.1491 14.3667 17.7758 14.12 17.2158 14.12C16.7358 14.12 16.3491 14.3267 16.0558 14.74C15.8024 15.1 15.6758 15.74 15.6758 16.66V21H13.7158V16.36C13.7158 15.6267 13.6558 15.1267 13.5358 14.86C13.3491 14.3667 12.9758 14.12 12.4158 14.12C11.9358 14.12 11.5491 14.3267 11.2558 14.74C11.0024 15.1 10.8758 15.74 10.8758 16.66V21H8.91578ZM29.1188 13.5V12.58H31.0788V20.32C31.0788 21.4133 30.9854 22.3 30.7988 22.98C30.6121 23.6733 30.2454 24.2467 29.6988 24.7C28.9654 25.3 28.0321 25.6 26.8988 25.6C25.7521 25.6 24.8321 25.2533 24.1388 24.56C23.4588 23.88 23.0454 23.0067 22.8988 21.94H24.7988C24.8921 22.4733 25.0988 22.9133 25.4188 23.26C25.7788 23.6467 26.2854 23.84 26.9388 23.84C27.5921 23.84 28.1054 23.6533 28.4788 23.28C28.9054 22.8667 29.1188 22.16 29.1188 21.16V20.06C28.4921 20.86 27.6388 21.26 26.5588 21.26C25.4254 21.26 24.4988 20.88 23.7788 20.12C22.9388 19.24 22.5188 18.1267 22.5188 16.78C22.5188 15.4333 22.9321 14.3467 23.7588 13.52C24.5188 12.7467 25.4721 12.36 26.6188 12.36C27.6454 12.36 28.4788 12.74 29.1188 13.5ZM26.8587 14.12C26.2588 14.12 25.7654 14.3067 25.3788 14.68C24.8054 15.2133 24.5188 15.9267 24.5188 16.82C24.5188 17.74 24.7988 18.4467 25.3588 18.94C25.7854 19.3133 26.2854 19.5 26.8587 19.5C27.5121 19.5 28.0588 19.2733 28.4988 18.82C28.9921 18.2867 29.2388 17.6267 29.2388 16.84C29.2388 15.9333 28.9721 15.2267 28.4388 14.72C28.0388 14.32 27.5121 14.12 26.8587 14.12Z" fill="black"/>
</svg>
