<svg width="18" height="24" viewBox="0 0 18 24" fill="none" xmlns="http://www.w3.org/2000/svg">
<path d="M10.4761 1.19492L10.4763 1.19492C11.3259 1.17682 12.014 1.74922 12.0135 2.47376L12.0121 3.83486L12.0121 3.83542C12.0124 4.36667 12.1752 4.88994 12.4862 5.34746C13.0715 6.2105 13.1345 7.3755 12.6818 8.34724L12.6708 8.37085L12.6629 8.39534L12.5423 8.76998L8.40422 8.76998L8.20172 8.3421L8.20161 8.34187C7.75798 7.40594 7.84243 6.35185 8.44041 5.44655C8.74932 4.97988 8.91273 4.45223 8.91308 3.92039L8.37497 3.92191L8.91308 3.92039L8.91397 2.55977C8.91397 2.55971 8.91397 2.55965 8.91397 2.55959C8.91491 1.82721 9.6176 1.2129 10.4761 1.19492Z" fill="white" stroke="black"/>
<rect x="7.5" y="9.5" width="6" height="12" rx="2.5" fill="white" stroke="black"/>
<path d="M6.60508 2.74326L6.60531 2.74326C7.45494 2.72516 8.14303 3.29756 8.14255 4.0221L8.14117 5.38319L8.14117 5.38376C8.1414 5.91501 8.30418 6.43828 8.61518 6.8958C9.20054 7.75884 9.26353 8.92384 8.81082 9.89558L8.79982 9.91919L8.79194 9.94368L8.67134 10.3183L4.53325 10.3183L4.33075 9.89044L4.33064 9.89021C3.88701 8.95428 3.97145 7.90019 4.56943 6.99489C4.87835 6.52822 5.04175 6.00057 5.0421 5.46873L4.504 5.47025L5.0421 5.46873L5.043 4.10811C5.043 4.10805 5.043 4.10799 5.043 4.10793C5.04394 3.37555 5.74663 2.76124 6.60508 2.74326Z" fill="white" stroke="black"/>
<rect x="3.5" y="11.5" width="6" height="12" rx="2.5" fill="white" stroke="black"/>
</svg>
