<svg width="34" height="30" viewBox="0 0 34 30" fill="none" xmlns="http://www.w3.org/2000/svg">
<g filter="url(#filter0_d)">
<path d="M27.9071 14.4351C27.9071 17.0837 24.9444 19.2308 21.2896 19.2308C17.6349 19.2308 14.5251 17.0837 14.5251 14.4351C14.5251 11.7865 14.2526 10.3887 17.9073 10.3887C18.0756 10.3887 25.2933 10.0926 25.4435 10.0997C28.5565 10.2473 27.9071 11.9085 27.9071 14.4351Z" fill="white"/>
<path d="M27.4071 14.4351C27.4071 15.5592 26.7793 16.6213 25.6755 17.4213C24.5722 18.2208 23.0232 18.7308 21.2896 18.7308C19.5554 18.7308 17.9668 18.2203 16.8244 17.4171C15.6795 16.6121 15.0251 15.5495 15.0251 14.4351C15.0251 14.2466 15.0238 14.0683 15.0226 13.8987C15.0195 13.4523 15.0167 13.0665 15.0386 12.7168C15.0686 12.238 15.1426 11.9069 15.2798 11.6667C15.5201 11.2461 16.0934 10.8887 17.9073 10.8887C17.9884 10.8887 19.2975 10.8367 20.7913 10.7773C21.0903 10.7655 21.3966 10.7533 21.702 10.7412C22.6241 10.7046 23.5453 10.6683 24.2454 10.6415C24.5954 10.6281 24.8897 10.6172 25.1009 10.6098C25.2289 10.6053 25.3153 10.6027 25.3656 10.6011C25.4063 10.5999 25.4234 10.5994 25.4199 10.5992C26.1632 10.6344 26.6152 10.7586 26.8932 10.9179C27.1477 11.0638 27.2836 11.254 27.3641 11.5201C27.4526 11.8124 27.4722 12.1918 27.4601 12.7006C27.456 12.8734 27.4478 13.0663 27.4392 13.2722C27.424 13.6327 27.4071 14.033 27.4071 14.4351Z" stroke="black" stroke-opacity="0.48"/>
<path d="M27.4071 14.4351C27.4071 15.5592 26.7793 16.6213 25.6755 17.4213C24.5722 18.2208 23.0232 18.7308 21.2896 18.7308C19.5554 18.7308 17.9668 18.2203 16.8244 17.4171C15.6795 16.6121 15.0251 15.5495 15.0251 14.4351C15.0251 14.2466 15.0238 14.0683 15.0226 13.8987C15.0195 13.4523 15.0167 13.0665 15.0386 12.7168C15.0686 12.238 15.1426 11.9069 15.2798 11.6667C15.5201 11.2461 16.0934 10.8887 17.9073 10.8887C17.9884 10.8887 19.2975 10.8367 20.7913 10.7773C21.0903 10.7655 21.3966 10.7533 21.702 10.7412C22.6241 10.7046 23.5453 10.6683 24.2454 10.6415C24.5954 10.6281 24.8897 10.6172 25.1009 10.6098C25.2289 10.6053 25.3153 10.6027 25.3656 10.6011C25.4063 10.5999 25.4234 10.5994 25.4199 10.5992C26.1632 10.6344 26.6152 10.7586 26.8932 10.9179C27.1477 11.0638 27.2836 11.254 27.3641 11.5201C27.4526 11.8124 27.4722 12.1918 27.4601 12.7006C27.456 12.8734 27.4478 13.0663 27.4392 13.2722C27.424 13.6327 27.4071 14.033 27.4071 14.4351Z" stroke="black" stroke-opacity="0.48"/>
<path d="M27.4071 14.4351C27.4071 15.5592 26.7793 16.6213 25.6755 17.4213C24.5722 18.2208 23.0232 18.7308 21.2896 18.7308C19.5554 18.7308 17.9668 18.2203 16.8244 17.4171C15.6795 16.6121 15.0251 15.5495 15.0251 14.4351C15.0251 14.2466 15.0238 14.0683 15.0226 13.8987C15.0195 13.4523 15.0167 13.0665 15.0386 12.7168C15.0686 12.238 15.1426 11.9069 15.2798 11.6667C15.5201 11.2461 16.0934 10.8887 17.9073 10.8887C17.9884 10.8887 19.2975 10.8367 20.7913 10.7773C21.0903 10.7655 21.3966 10.7533 21.702 10.7412C22.6241 10.7046 23.5453 10.6683 24.2454 10.6415C24.5954 10.6281 24.8897 10.6172 25.1009 10.6098C25.2289 10.6053 25.3153 10.6027 25.3656 10.6011C25.4063 10.5999 25.4234 10.5994 25.4199 10.5992C26.1632 10.6344 26.6152 10.7586 26.8932 10.9179C27.1477 11.0638 27.2836 11.254 27.3641 11.5201C27.4526 11.8124 27.4722 12.1918 27.4601 12.7006C27.456 12.8734 27.4478 13.0663 27.4392 13.2722C27.424 13.6327 27.4071 14.033 27.4071 14.4351Z" stroke="black" stroke-opacity="0.48"/>
<path d="M27.9071 12.3372C27.9071 14.9857 24.9443 17.1328 21.2896 17.1328C17.6349 17.1328 14.6721 14.9857 14.6721 12.3372C14.6721 9.6886 17.6349 7.5415 21.2896 7.5415C24.9443 7.5415 27.9071 9.6886 27.9071 12.3372Z" fill="white"/>
<path d="M27.4071 12.3372C27.4071 13.4613 26.7793 14.5234 25.6755 15.3234C24.5722 16.1229 23.0232 16.6328 21.2896 16.6328C19.556 16.6328 18.007 16.1229 16.9037 15.3234C15.7999 14.5234 15.1721 13.4613 15.1721 12.3372C15.1721 11.213 15.7999 10.1509 16.9037 9.35099C18.007 8.55145 19.556 8.0415 21.2896 8.0415C23.0232 8.0415 24.5722 8.55145 25.6755 9.35099C26.7793 10.1509 27.4071 11.213 27.4071 12.3372Z" stroke="black" stroke-opacity="0.48"/>
<path d="M27.4071 12.3372C27.4071 13.4613 26.7793 14.5234 25.6755 15.3234C24.5722 16.1229 23.0232 16.6328 21.2896 16.6328C19.556 16.6328 18.007 16.1229 16.9037 15.3234C15.7999 14.5234 15.1721 13.4613 15.1721 12.3372C15.1721 11.213 15.7999 10.1509 16.9037 9.35099C18.007 8.55145 19.556 8.0415 21.2896 8.0415C23.0232 8.0415 24.5722 8.55145 25.6755 9.35099C26.7793 10.1509 27.4071 11.213 27.4071 12.3372Z" stroke="black" stroke-opacity="0.48"/>
<path d="M27.4071 12.3372C27.4071 13.4613 26.7793 14.5234 25.6755 15.3234C24.5722 16.1229 23.0232 16.6328 21.2896 16.6328C19.556 16.6328 18.007 16.1229 16.9037 15.3234C15.7999 14.5234 15.1721 13.4613 15.1721 12.3372C15.1721 11.213 15.7999 10.1509 16.9037 9.35099C18.007 8.55145 19.556 8.0415 21.2896 8.0415C23.0232 8.0415 24.5722 8.55145 25.6755 9.35099C26.7793 10.1509 27.4071 11.213 27.4071 12.3372Z" stroke="black" stroke-opacity="0.48"/>
<path d="M17.6132 8.59058L25.26 15.9339" stroke="black"/>
<path d="M19.0355 10.5969C20.3734 12.8827 18.9011 16.2324 15.7469 18.0785C12.5927 19.9247 8.82429 19.6426 7.48637 17.3568C6.14846 15.071 5.20716 14.0023 8.36132 12.1561C8.50654 12.0711 14.5861 8.16957 14.7194 8.09983C17.4806 6.65469 17.7592 8.41634 19.0355 10.5969Z" fill="white"/>
<path d="M18.604 10.8495C19.1718 11.8196 19.1666 13.0534 18.618 14.3014C18.0697 15.5487 16.9905 16.7713 15.4943 17.647C13.9976 18.5231 12.3688 18.885 10.9771 18.7689C9.58233 18.6525 8.48083 18.066 7.91789 17.1042C7.8227 16.9416 7.73152 16.7883 7.64481 16.6425C7.41658 16.2589 7.21934 15.9273 7.06156 15.6144C6.8456 15.186 6.74222 14.863 6.73929 14.5863C6.73416 14.102 7.04844 13.5039 8.61389 12.5877C8.6839 12.5467 9.78737 11.8405 11.0466 11.0347C11.2986 10.8734 11.5569 10.7081 11.8143 10.5434C12.5917 10.0461 13.3684 9.54934 13.959 9.17266C14.2544 8.98427 14.5028 8.82617 14.6814 8.71309C14.7896 8.64457 14.8628 8.59864 14.9054 8.57189C14.9398 8.5503 14.9544 8.5412 14.9513 8.54279C15.6106 8.19774 16.0634 8.07661 16.3838 8.07366C16.6771 8.07096 16.8905 8.1665 17.0944 8.35544C17.3184 8.56305 17.527 8.88057 17.7735 9.3258C17.8573 9.47701 17.9477 9.6476 18.0442 9.82971C18.2132 10.1485 18.4009 10.5025 18.604 10.8495Z" stroke="black" stroke-opacity="0.48"/>
<path d="M18.604 10.8495C19.1718 11.8196 19.1666 13.0534 18.618 14.3014C18.0697 15.5487 16.9905 16.7713 15.4943 17.647C13.9976 18.5231 12.3688 18.885 10.9771 18.7689C9.58233 18.6525 8.48083 18.066 7.91789 17.1042C7.8227 16.9416 7.73152 16.7883 7.64481 16.6425C7.41658 16.2589 7.21934 15.9273 7.06156 15.6144C6.8456 15.186 6.74222 14.863 6.73929 14.5863C6.73416 14.102 7.04844 13.5039 8.61389 12.5877C8.6839 12.5467 9.78737 11.8405 11.0466 11.0347C11.2986 10.8734 11.5569 10.7081 11.8143 10.5434C12.5917 10.0461 13.3684 9.54934 13.959 9.17266C14.2544 8.98427 14.5028 8.82617 14.6814 8.71309C14.7896 8.64457 14.8628 8.59864 14.9054 8.57189C14.9398 8.5503 14.9544 8.5412 14.9513 8.54279C15.6106 8.19774 16.0634 8.07661 16.3838 8.07366C16.6771 8.07096 16.8905 8.1665 17.0944 8.35544C17.3184 8.56305 17.527 8.88057 17.7735 9.3258C17.8573 9.47701 17.9477 9.6476 18.0442 9.82971C18.2132 10.1485 18.4009 10.5025 18.604 10.8495Z" stroke="black" stroke-opacity="0.48"/>
<path d="M18.604 10.8495C19.1718 11.8196 19.1666 13.0534 18.618 14.3014C18.0697 15.5487 16.9905 16.7713 15.4943 17.647C13.9976 18.5231 12.3688 18.885 10.9771 18.7689C9.58233 18.6525 8.48083 18.066 7.91789 17.1042C7.8227 16.9416 7.73152 16.7883 7.64481 16.6425C7.41658 16.2589 7.21934 15.9273 7.06156 15.6144C6.8456 15.186 6.74222 14.863 6.73929 14.5863C6.73416 14.102 7.04844 13.5039 8.61389 12.5877C8.6839 12.5467 9.78737 11.8405 11.0466 11.0347C11.2986 10.8734 11.5569 10.7081 11.8143 10.5434C12.5917 10.0461 13.3684 9.54934 13.959 9.17266C14.2544 8.98427 14.5028 8.82617 14.6814 8.71309C14.7896 8.64457 14.8628 8.59864 14.9054 8.57189C14.9398 8.5503 14.9544 8.5412 14.9513 8.54279C15.6106 8.19774 16.0634 8.07661 16.3838 8.07366C16.6771 8.07096 16.8905 8.1665 17.0944 8.35544C17.3184 8.56305 17.527 8.88057 17.7735 9.3258C17.8573 9.47701 17.9477 9.6476 18.0442 9.82971C18.2132 10.1485 18.4009 10.5025 18.604 10.8495Z" stroke="black" stroke-opacity="0.48"/>
<path d="M17.9756 8.78625C19.3135 11.0721 17.8412 14.4217 14.687 16.2679C11.5328 18.114 7.89128 17.7576 6.55337 15.4718C5.21545 13.186 6.68781 9.83639 9.84197 7.99022C12.9961 6.14404 16.6377 6.50044 17.9756 8.78625Z" fill="white"/>
<path d="M17.5441 9.03882C18.1119 10.009 18.1067 11.2427 17.5581 12.4907C17.0098 13.7381 15.9305 14.9606 14.4344 15.8363C12.9383 16.712 11.3438 17.0544 9.98779 16.9217C8.63104 16.7889 7.55273 16.1894 6.98489 15.2193C6.41704 14.2491 6.42231 13.0154 6.97087 11.7674C7.51915 10.52 8.59842 9.29744 10.0945 8.42173C11.5907 7.54603 13.1851 7.20364 14.5412 7.33636C15.8979 7.46914 16.9762 8.06866 17.5441 9.03882Z" stroke="black" stroke-opacity="0.48"/>
<path d="M17.5441 9.03882C18.1119 10.009 18.1067 11.2427 17.5581 12.4907C17.0098 13.7381 15.9305 14.9606 14.4344 15.8363C12.9383 16.712 11.3438 17.0544 9.98779 16.9217C8.63104 16.7889 7.55273 16.1894 6.98489 15.2193C6.41704 14.2491 6.42231 13.0154 6.97087 11.7674C7.51915 10.52 8.59842 9.29744 10.0945 8.42173C11.5907 7.54603 13.1851 7.20364 14.5412 7.33636C15.8979 7.46914 16.9762 8.06866 17.5441 9.03882Z" stroke="black" stroke-opacity="0.48"/>
<path d="M17.5441 9.03882C18.1119 10.009 18.1067 11.2427 17.5581 12.4907C17.0098 13.7381 15.9305 14.9606 14.4344 15.8363C12.9383 16.712 11.3438 17.0544 9.98779 16.9217C8.63104 16.7889 7.55273 16.1894 6.98489 15.2193C6.41704 14.2491 6.42231 13.0154 6.97087 11.7674C7.51915 10.52 8.59842 9.29744 10.0945 8.42173C11.5907 7.54603 13.1851 7.20364 14.5412 7.33636C15.8979 7.46914 16.9762 8.06866 17.5441 9.03882Z" stroke="black" stroke-opacity="0.48"/>
<path d="M7.19897 10.7529L17.508 13.2277" stroke="black"/>
</g>
<defs>
<filter id="filter0_d" x="0.130859" y="4.64746" width="31.8325" height="24.8505" filterUnits="userSpaceOnUse" color-interpolation-filters="sRGB">
<feFlood flood-opacity="0" result="BackgroundImageFix"/>
<feColorMatrix in="SourceAlpha" type="matrix" values="0 0 0 0 0 0 0 0 0 0 0 0 0 0 0 0 0 0 127 0"/>
<feOffset dy="4"/>
<feGaussianBlur stdDeviation="2"/>
<feColorMatrix type="matrix" values="0 0 0 0 0 0 0 0 0 0 0 0 0 0 0 0 0 0 0.25 0"/>
<feBlend mode="normal" in2="BackgroundImageFix" result="effect1_dropShadow"/>
<feBlend mode="normal" in="SourceGraphic" in2="effect1_dropShadow" result="shape"/>
</filter>
</defs>
</svg>
