<svg width="30" height="28" viewBox="0 0 30 28" fill="none" xmlns="http://www.w3.org/2000/svg">
<path d="M23.9071 14.4351C23.9071 17.0837 20.9444 19.2308 17.2896 19.2308C13.6349 19.2308 10.5251 17.0837 10.5251 14.4351C10.5251 11.7865 10.2526 10.3887 13.9073 10.3887C14.0756 10.3887 21.2933 10.0926 21.4435 10.0997C24.5565 10.2473 23.9071 11.9085 23.9071 14.4351Z" fill="white"/>
<path d="M12.8244 17.4171C11.6795 16.6121 11.0251 15.5495 11.0251 14.4351C11.0251 14.435 11.0251 14.4349 11.0251 14.4348L11.0251 13.0349C11.0279 12.9253 11.0322 12.8195 11.0386 12.7168C11.0668 12.267 11.1338 11.9476 11.2556 11.7114L21.4582 10.6011C22.1788 10.6387 22.62 10.7614 22.8932 10.9179C23.1477 11.0638 23.2836 11.254 23.3641 11.5201C23.4526 11.8124 23.4722 12.1918 23.4601 12.7006C23.456 12.8734 23.4478 13.0663 23.4392 13.2722C23.424 13.6327 23.4071 14.033 23.4071 14.4351C23.4071 15.5592 22.7793 16.6213 21.6755 17.4213C20.5722 18.2208 19.0232 18.7308 17.2896 18.7308C15.5554 18.7308 13.9668 18.2203 12.8244 17.4171Z" stroke="black" stroke-opacity="0.48"/>
<path d="M12.8244 17.4171C11.6795 16.6121 11.0251 15.5495 11.0251 14.4351C11.0251 14.435 11.0251 14.4349 11.0251 14.4348L11.0251 13.0349C11.0279 12.9253 11.0322 12.8195 11.0386 12.7168C11.0668 12.267 11.1338 11.9476 11.2556 11.7114L21.4582 10.6011C22.1788 10.6387 22.62 10.7614 22.8932 10.9179C23.1477 11.0638 23.2836 11.254 23.3641 11.5201C23.4526 11.8124 23.4722 12.1918 23.4601 12.7006C23.456 12.8734 23.4478 13.0663 23.4392 13.2722C23.424 13.6327 23.4071 14.033 23.4071 14.4351C23.4071 15.5592 22.7793 16.6213 21.6755 17.4213C20.5722 18.2208 19.0232 18.7308 17.2896 18.7308C15.5554 18.7308 13.9668 18.2203 12.8244 17.4171Z" stroke="black" stroke-opacity="0.48"/>
<path d="M12.8244 17.4171C11.6795 16.6121 11.0251 15.5495 11.0251 14.4351C11.0251 14.435 11.0251 14.4349 11.0251 14.4348L11.0251 13.0349C11.0279 12.9253 11.0322 12.8195 11.0386 12.7168C11.0668 12.267 11.1338 11.9476 11.2556 11.7114L21.4582 10.6011C22.1788 10.6387 22.62 10.7614 22.8932 10.9179C23.1477 11.0638 23.2836 11.254 23.3641 11.5201C23.4526 11.8124 23.4722 12.1918 23.4601 12.7006C23.456 12.8734 23.4478 13.0663 23.4392 13.2722C23.424 13.6327 23.4071 14.033 23.4071 14.4351C23.4071 15.5592 22.7793 16.6213 21.6755 17.4213C20.5722 18.2208 19.0232 18.7308 17.2896 18.7308C15.5554 18.7308 13.9668 18.2203 12.8244 17.4171Z" stroke="black" stroke-opacity="0.48"/>
<path d="M23.9071 12.3372C23.9071 14.9857 20.9443 17.1328 17.2896 17.1328C13.6349 17.1328 10.6721 14.9857 10.6721 12.3372C10.6721 9.6886 13.6349 7.5415 17.2896 7.5415C20.9443 7.5415 23.9071 9.6886 23.9071 12.3372Z" fill="white"/>
<path d="M23.4071 12.3372C23.4071 13.4613 22.7793 14.5234 21.6755 15.3234C20.5722 16.1229 19.0232 16.6328 17.2896 16.6328C15.556 16.6328 14.007 16.1229 12.9037 15.3234C11.7999 14.5234 11.1721 13.4613 11.1721 12.3372C11.1721 11.213 11.7999 10.1509 12.9037 9.35099C14.007 8.55145 15.556 8.0415 17.2896 8.0415C19.0232 8.0415 20.5722 8.55145 21.6755 9.35099C22.7793 10.1509 23.4071 11.213 23.4071 12.3372Z" stroke="black" stroke-opacity="0.48"/>
<path d="M23.4071 12.3372C23.4071 13.4613 22.7793 14.5234 21.6755 15.3234C20.5722 16.1229 19.0232 16.6328 17.2896 16.6328C15.556 16.6328 14.007 16.1229 12.9037 15.3234C11.7999 14.5234 11.1721 13.4613 11.1721 12.3372C11.1721 11.213 11.7999 10.1509 12.9037 9.35099C14.007 8.55145 15.556 8.0415 17.2896 8.0415C19.0232 8.0415 20.5722 8.55145 21.6755 9.35099C22.7793 10.1509 23.4071 11.213 23.4071 12.3372Z" stroke="black" stroke-opacity="0.48"/>
<path d="M23.4071 12.3372C23.4071 13.4613 22.7793 14.5234 21.6755 15.3234C20.5722 16.1229 19.0232 16.6328 17.2896 16.6328C15.556 16.6328 14.007 16.1229 12.9037 15.3234C11.7999 14.5234 11.1721 13.4613 11.1721 12.3372C11.1721 11.213 11.7999 10.1509 12.9037 9.35099C14.007 8.55145 15.556 8.0415 17.2896 8.0415C19.0232 8.0415 20.5722 8.55145 21.6755 9.35099C22.7793 10.1509 23.4071 11.213 23.4071 12.3372Z" stroke="black" stroke-opacity="0.48"/>
<path d="M13.6132 8.59058L21.26 15.9339" stroke="black"/>
<path d="M15.0355 10.5969C16.3734 12.8827 14.9011 16.2324 11.7469 18.0785C8.59274 19.9247 4.82429 19.6426 3.48637 17.3568C2.14846 15.071 1.20716 14.0023 4.36132 12.1561C4.50654 12.0711 10.5861 8.16957 10.7194 8.09983C13.4806 6.65469 13.7592 8.41634 15.0355 10.5969Z" fill="white"/>
<path d="M6.97712 18.7689C5.58233 18.6525 4.48083 18.066 3.91789 17.1042C3.91783 17.1041 3.91778 17.104 3.91772 17.1039L3.21057 15.8958C3.15764 15.7998 3.1079 15.7063 3.06156 15.6144C2.85869 15.212 2.75516 14.9025 2.74093 14.6371L10.9853 8.52508C11.6262 8.19358 12.0689 8.07656 12.3838 8.07366C12.6771 8.07096 12.8905 8.16651 13.0944 8.35544C13.3184 8.56305 13.527 8.88057 13.7735 9.3258C13.8573 9.47701 13.9477 9.6476 14.0442 9.82971C14.2132 10.1485 14.4009 10.5025 14.604 10.8495C15.1718 11.8196 15.1666 13.0534 14.618 14.3014C14.0697 15.5487 12.9905 16.7713 11.4943 17.647C9.99759 18.5231 8.36877 18.885 6.97712 18.7689Z" stroke="black" stroke-opacity="0.48"/>
<path d="M6.97712 18.7689C5.58233 18.6525 4.48083 18.066 3.91789 17.1042C3.91783 17.1041 3.91778 17.104 3.91772 17.1039L3.21057 15.8958C3.15764 15.7998 3.1079 15.7063 3.06156 15.6144C2.85869 15.212 2.75516 14.9025 2.74093 14.6371L10.9853 8.52508C11.6262 8.19358 12.0689 8.07656 12.3838 8.07366C12.6771 8.07096 12.8905 8.16651 13.0944 8.35544C13.3184 8.56305 13.527 8.88057 13.7735 9.3258C13.8573 9.47701 13.9477 9.6476 14.0442 9.82971C14.2132 10.1485 14.4009 10.5025 14.604 10.8495C15.1718 11.8196 15.1666 13.0534 14.618 14.3014C14.0697 15.5487 12.9905 16.7713 11.4943 17.647C9.99759 18.5231 8.36877 18.885 6.97712 18.7689Z" stroke="black" stroke-opacity="0.48"/>
<path d="M6.97712 18.7689C5.58233 18.6525 4.48083 18.066 3.91789 17.1042C3.91783 17.1041 3.91778 17.104 3.91772 17.1039L3.21057 15.8958C3.15764 15.7998 3.1079 15.7063 3.06156 15.6144C2.85869 15.212 2.75516 14.9025 2.74093 14.6371L10.9853 8.52508C11.6262 8.19358 12.0689 8.07656 12.3838 8.07366C12.6771 8.07096 12.8905 8.16651 13.0944 8.35544C13.3184 8.56305 13.527 8.88057 13.7735 9.3258C13.8573 9.47701 13.9477 9.6476 14.0442 9.82971C14.2132 10.1485 14.4009 10.5025 14.604 10.8495C15.1718 11.8196 15.1666 13.0534 14.618 14.3014C14.0697 15.5487 12.9905 16.7713 11.4943 17.647C9.99759 18.5231 8.36877 18.885 6.97712 18.7689Z" stroke="black" stroke-opacity="0.48"/>
<path d="M13.9756 8.78625C15.3135 11.0721 13.8412 14.4217 10.687 16.2679C7.53283 18.114 3.89128 17.7576 2.55337 15.4718C1.21545 13.186 2.68781 9.83639 5.84197 7.99022C8.99614 6.14404 12.6377 6.50044 13.9756 8.78625Z" fill="white"/>
<path d="M13.5441 9.03882C14.1119 10.009 14.1067 11.2427 13.5581 12.4907C13.0098 13.7381 11.9305 14.9606 10.4344 15.8363C8.93829 16.712 7.34384 17.0544 5.98779 16.9217C4.63104 16.7889 3.55273 16.1894 2.98489 15.2193C2.41704 14.2491 2.42231 13.0154 2.97087 11.7674C3.51915 10.52 4.59842 9.29744 6.09455 8.42173C7.59067 7.54603 9.18513 7.20364 10.5412 7.33636C11.8979 7.46914 12.9762 8.06866 13.5441 9.03882Z" stroke="black" stroke-opacity="0.48"/>
<path d="M13.5441 9.03882C14.1119 10.009 14.1067 11.2427 13.5581 12.4907C13.0098 13.7381 11.9305 14.9606 10.4344 15.8363C8.93829 16.712 7.34384 17.0544 5.98779 16.9217C4.63104 16.7889 3.55273 16.1894 2.98489 15.2193C2.41704 14.2491 2.42231 13.0154 2.97087 11.7674C3.51915 10.52 4.59842 9.29744 6.09455 8.42173C7.59067 7.54603 9.18513 7.20364 10.5412 7.33636C11.8979 7.46914 12.9762 8.06866 13.5441 9.03882Z" stroke="black" stroke-opacity="0.48"/>
<path d="M13.5441 9.03882C14.1119 10.009 14.1067 11.2427 13.5581 12.4907C13.0098 13.7381 11.9305 14.9606 10.4344 15.8363C8.93829 16.712 7.34384 17.0544 5.98779 16.9217C4.63104 16.7889 3.55273 16.1894 2.98489 15.2193C2.41704 14.2491 2.42231 13.0154 2.97087 11.7674C3.51915 10.52 4.59842 9.29744 6.09455 8.42173C7.59067 7.54603 9.18513 7.20364 10.5412 7.33636C11.8979 7.46914 12.9762 8.06866 13.5441 9.03882Z" stroke="black" stroke-opacity="0.48"/>
<path d="M3.19897 10.7529L13.508 13.2277" stroke="black"/>
</svg>
