<svg width="22" height="22" viewBox="0 0 22 22" fill="none" xmlns="http://www.w3.org/2000/svg">
<path d="M6.27397 19.5544L10.3428 7.35469L15.135 9.23583L9.88063 20.9702L6.27397 19.5544Z" fill="white" stroke="black"/>
<path d="M14.1304 1.99458C14.5104 1.79503 14.7731 1.66688 14.9713 1.59898C15.0672 1.56612 15.1303 1.55384 15.1703 1.55068C15.1893 1.54918 15.2009 1.54992 15.2069 1.55065C15.2099 1.55101 15.2118 1.55141 15.2128 1.55164L15.2144 1.55212L15.2157 1.55269C15.2164 1.55305 15.2178 1.55383 15.2199 1.5553C15.2242 1.55822 15.2327 1.56467 15.2451 1.57753C15.2714 1.60475 15.3095 1.65434 15.3582 1.74232C15.4589 1.92409 15.5677 2.19916 15.7124 2.61409C15.8257 2.93899 15.8749 3.47722 15.8632 4.15651C15.8519 4.82007 15.7842 5.56317 15.6975 6.26482C15.611 6.96492 15.5065 7.6153 15.4236 8.09113C15.4123 8.15609 15.4014 8.21776 15.391 8.27582L10.7202 6.44232C10.7536 6.3848 10.7897 6.32316 10.8281 6.25788C11.073 5.84229 11.4143 5.28115 11.8013 4.69684C12.1892 4.11106 12.6177 3.50991 13.0367 3.01077C13.4674 2.49771 13.8465 2.14365 14.1304 1.99458Z" fill="white" stroke="black"/>
<path d="M20.5654 19.0559L7.71137 18.6523L8.14094 13.5221L20.8887 15.1949L20.5654 19.0559Z" fill="white" stroke="black"/>
<path d="M1.48087 16.5254C1.1808 16.2184 0.982789 16.0035 0.860952 15.833C0.801992 15.7505 0.772163 15.6936 0.757664 15.6562C0.750802 15.6385 0.748179 15.6271 0.747155 15.6211C0.746641 15.6182 0.746479 15.6162 0.746423 15.6152L0.74641 15.6135L0.746601 15.6122C0.746748 15.6114 0.747093 15.6098 0.747885 15.6073C0.74945 15.6024 0.753209 15.5924 0.761964 15.5768C0.780504 15.5438 0.817109 15.4932 0.887448 15.4213C1.03276 15.2727 1.26513 15.0897 1.62123 14.8322C1.90007 14.6306 2.40164 14.4293 3.0558 14.2459C3.69481 14.0667 4.42615 13.9186 5.12324 13.8007C5.81878 13.683 6.47182 13.5968 6.95148 13.54C7.01696 13.5322 7.07918 13.525 7.13778 13.5184L6.71909 18.5186C6.6544 18.5031 6.58502 18.4862 6.51145 18.468C6.04314 18.3525 5.40773 18.1862 4.73707 17.9828C4.06472 17.779 3.36602 17.5407 2.76776 17.2822C2.15283 17.0165 1.70501 16.7547 1.48087 16.5254Z" fill="white" stroke="black"/>
</svg>
