<svg width="14" height="19" viewBox="0 0 14 19" fill="none" xmlns="http://www.w3.org/2000/svg">
<path d="M8.59458 2.09476C8.15581 1.44952 7.76867 0.855898 7.40734 0.313897C7.35572 0.236469 7.27829 0.15904 7.20086 0.107421C6.89115 -0.0990551 6.47819 0.00418301 6.27172 0.313897C5.93619 0.855898 5.54905 1.42371 5.08448 2.09476C3.04553 5.08866 0 9.60533 0 12.1863C0 14.0704 0.774286 15.7738 2.01314 17.0127C3.252 18.2257 4.95543 19 6.83953 19C8.72362 19 10.4271 18.2257 11.6659 16.9869C12.9048 15.748 13.6791 14.0446 13.6791 12.1605C13.6791 9.57952 10.6335 5.08866 8.59458 2.09476ZM10.7368 16.0577C9.7302 17.0643 8.36229 17.6579 6.83953 17.6579C5.31676 17.6579 3.94886 17.0385 2.94229 16.0577C1.93572 15.0511 1.3421 13.6832 1.3421 12.1605C1.3421 9.99247 4.25857 5.68228 6.19429 2.81742C6.42657 2.4819 6.63305 2.14637 6.83953 1.86247C7.046 2.14637 7.25248 2.4819 7.48477 2.81742C9.42048 5.70809 12.337 9.99247 12.337 12.1605C12.337 13.6832 11.7175 15.0511 10.7368 16.0577Z" fill="#2B5D92"/>
<path d="M10.8398 11.6957C10.4784 11.6699 10.1687 11.9538 10.1429 12.3152C10.1171 12.883 9.93645 13.425 9.65254 13.8895C9.36864 14.3541 8.95569 14.7671 8.46531 15.0252C8.15559 15.2058 8.02654 15.6188 8.20721 15.9285C8.41369 16.2898 8.82664 16.3931 9.13635 16.2124C9.83321 15.8252 10.401 15.2574 10.7882 14.6122C11.2011 13.967 11.4334 13.1927 11.4592 12.3926C11.485 12.0312 11.2011 11.7215 10.8398 11.6957Z" fill="#2B5D92"/>
</svg>
