<svg width="16" height="16" viewBox="0 0 16 16" fill="none" xmlns="http://www.w3.org/2000/svg">
<path d="M15.2 0H0.8C0.587942 0.00037599 0.384678 0.0847822 0.23473 0.23473C0.0847822 0.384678 0.00037599 0.587942 0 0.8V6.13333H1.06667V1.06667H14.9333V14.9333H1.06667V9.6H0V15.2C0.00037599 15.4121 0.0847822 15.6153 0.23473 15.7653C0.384678 15.9152 0.587942 15.9996 0.8 16H15.2C15.4121 15.9996 15.6153 15.9152 15.7653 15.7653C15.9152 15.6153 15.9996 15.4121 16 15.2V0.8C15.9996 0.587942 15.9152 0.384678 15.7653 0.23473C15.6153 0.0847822 15.4121 0.00037599 15.2 0Z" fill="#284C8A"/>
<path d="M6.44624 11.5768L7.20073 12.3313L11.6878 7.84423L7.20073 3.35712L6.44624 4.11161L9.64624 7.3116H0.000732422V8.37827H9.64624L6.44624 11.5783V11.5768Z" fill="#284C8A"/>
</svg>
